{"accessors" : [{"bufferView" : 0, "byteOffset" : 0, "componentType" : 5125, "count" : 87246, "type" : "SCALAR", "max" : [72670], "min" : [0]}, {"bufferView" : 1, "byteOffset" : 0, "componentType" : 5126, "count" : 72671, "type" : "VEC3", "max" : [25, 15, 2.200000047683716], "min" : [-15, -25, -13.5], "name" : "POSITION"}, {"bufferView" : 1, "byteOffset" : 12, "componentType" : 5126, "count" : 72671, "type" : "VEC2", "max" : [2.450000047683716, 3.903986930847168], "min" : [-1.9745769500732422, -43.587520599365234], "name" : "TEXCOORD_0"}, {"bufferView" : 1, "byteOffset" : 20, "componentType" : 5126, "count" : 72671, "type" : "VEC3", "max" : [1.0000044107437134, 1.0000044107437134, 1.0000044107437134], "min" : [-1.0000044107437134, -1.0000044107437134, -1.0000044107437134], "name" : "NORMAL"}], "asset" : {"generator" : "Aspose.3D 22.5.1", "version" : "2.0"}, "buffers" : [{"uri" : "data:application/octet-stream;base64,", "byteLength" : 3140864}], "bufferViews" : [{"buffer" : 0, "byteOffset" : 0, "byteLength" : 348984, "target" : 34963}, {"buffer" : 0, "byteOffset" : 348988, "byteLength" : 2791872, "byteStride" : 32, "target" : 34962}], "meshes" : [{"primitives" : [{"attributes" : {"POSITION" : 1, "TEXCOORD_0" : 2, "NORMAL" : 3}, "indices" : 0, "mode" : 4}], "name" : ""}], "nodes" : [{"mesh" : 0, "name" : "Body1"}], "scene" : 0, "scenes" : [{"nodes" : [0]}]}